HIERARCHY
ROOT Hips
{
  OFFSET 0 0 0
  CHANNELS 6 Xposition Yposition Zposition Zrotation Yrotation Xrotation
  JOINT LeftThigh
  {
    OFFSET 8.409438 0 -5.917753
    CHANNELS 3 Zrotation Yrotation Xrotation
    JOINT LeftLeg
    {
      OFFSET 0 0 -42.358652
      CHANNELS 3 Zrotation Yrotation Xrotation
      JOINT LeftFoot
      {
        OFFSET 0 0 -39.357303
        CHANNELS 3 Zrotation Yrotation Xrotation
      }
    }
  }
  JOINT RightThigh
  {
    OFFSET -8.409438 0 -5.917753
    CHANNELS 3 Zrotation Yrotation Xrotation
    JOINT RightLeg
    {
      OFFSET 0 0 -42.358652
      CHANNELS 3 Zrotation Yrotation Xrotation
      JOINT RightFoot
      {
        OFFSET 0 0 -39.357303
        CHANNELS 3 Zrotation Yrotation Xrotation
      }
    }
  }
  JOINT SpineLow
  {
    OFFSET 0 0 4.719101
    CHANNELS 3 Zrotation Yrotation Xrotation
    JOINT SpineMid
    {
      OFFSET 0 0 12.899191
      CHANNELS 3 Zrotation Yrotation Xrotation
      JOINT Chest
      {
        OFFSET 0 0 12.899191
        CHANNELS 3 Zrotation Yrotation Xrotation
        JOINT LeftShoulder
        {
          OFFSET 7.550562 1.41573 9.438202
          CHANNELS 3 Zrotation Yrotation Xrotation
          JOINT LeftArm
          {
            OFFSET 9.155056 0 4.247191
            CHANNELS 3 Zrotation Yrotation Xrotation
            JOINT LeftForearm
            {
              OFFSET 0 0 25.771955
              CHANNELS 3 Zrotation Yrotation Xrotation
              JOINT LeftHand
              {
                OFFSET 0 0 25.197169
                CHANNELS 3 Zrotation Yrotation Xrotation
              }
            }
          }
        }
        JOINT RightShoulder
        {
          OFFSET -7.550562 1.41573 9.438202
          CHANNELS 3 Zrotation Yrotation Xrotation
          JOINT RightArm
          {
            OFFSET -9.155056 0 4.247191
            CHANNELS 3 Zrotation Yrotation Xrotation
            JOINT RightForearm
            {
              OFFSET 0 0 -25.771955
              CHANNELS 3 Zrotation Yrotation Xrotation
              JOINT RightHand
              {
                OFFSET 0 0 -25.197169
                CHANNELS 3 Zrotation Yrotation Xrotation
              }
            }
          }
        }
        JOINT Neck
        {
          OFFSET 0 0 15.101124
          CHANNELS 3 Zrotation Yrotation Xrotation
          JOINT Head
          {
            OFFSET 0 0 11.325843
            CHANNELS 3 Zrotation Yrotation Xrotation
            End Site
            {
              OFFSET 0 0 14.157303
            }
          }
        }
      }
    }
  }
}
MOTION
Frames: 14
Frame Time: 0.0
0.0  101.685394  0.0  -4.58E-4  -48.742717  -104.779082  34.266593  -21.416653  7.163985  1.787558  4.672854  34.534903  11.668421  6.67183  5.063932  9.749232  0.619906  -10.658474  15.284127  7.386456  25.171712  8.460252  2.360144  -2.834664  -5.311292  -0.73677  4.639723  -14.598599  -0.981277  12.774227  -14.598599  -0.981277  12.774229  -15.323733  13.997349  -7.456399  74.203658  55.748433  110.28049  -22.670241  -31.520996  124.859679  120.791371  5.188331  -6.182031  2.091199  1.792693  7.497785  76.362643  11.462106  30.307416  -45.049105  13.654004  -96.93522  66.769672  35.37574  5.515745  28.109857  5.68222  -6.179782  21.125034  3.987836  -4.90577  
0.0  101.685394  0.0  0.261894  -48.161406  -104.901738  34.238684  -21.192122  7.462618  1.291815  4.835861  33.99609  11.763126  6.644672  5.069889  8.996619  0.775241  -10.500247  15.807165  7.603655  25.136854  8.422171  2.403098  -2.859618  -5.230458  -0.778005  4.668864  -14.386901  -1.102183  12.862272  -14.386902  -1.102183  12.862272  -15.057451  14.161243  -7.355846  75.609341  56.328427  112.065732  -22.183439  -31.638792  124.129012  121.091875  5.132195  -6.243559  2.932813  1.922374  7.808603  76.618437  13.103513  30.077088  -45.786079  15.390857  -96.801919  67.114283  34.457775  6.39102  27.749569  5.735525  -6.093892  20.854354  4.035228  -4.839932  
0.0  101.685394  0.0  0.418355  -47.288034  -104.965598  34.023738  -21.065723  7.731743  0.574652  5.026609  33.487763  11.768748  6.701388  4.987155  7.384072  0.983545  -10.598568  16.894719  7.588601  25.311556  8.483639  2.423094  -2.837608  -5.163732  -0.817039  4.685719  -14.213207  -1.217221  12.916285  -14.213206  -1.217222  12.916285  -14.540534  14.513788  -7.147126  76.748639  57.258126  113.778337  -21.659246  -31.86635  123.283295  121.24052  5.007292  -6.229814  3.775335  2.005546  7.981735  76.914959  14.482805  29.831771  -46.581631  16.271604  -96.365266  67.990665  33.813262  6.878642  27.313304  5.70714  -5.949657  20.525822  4.024389  -4.725841  
0.0  101.685394  0.0  0.626157  -46.272128  -105.048365  33.775366  -20.936242  7.914588  -0.152538  5.40716  33.028342  11.954115  6.680087  5.006448  6.442662  1.174482  -10.353491  17.431021  7.793886  25.288035  8.39859  2.437506  -2.821632  -5.092485  -0.845559  4.674356  -14.024933  -1.310792  12.891044  -14.024933  -1.310792  12.891044  -14.235692  14.753576  -6.848552  78.541283  58.680113  115.962016  -21.194743  -32.154599  122.38652  121.360105  4.830874  -6.232192  4.643373  2.013498  8.18241  77.184525  15.770338  29.586515  -47.215514  17.076306  -96.030618  68.916966  33.172296  7.466014  26.8458  5.652641  -5.737585  20.173115  3.996971  -4.559414  
0.0  101.685394  0.0  0.78928  -45.017729  -105.104382  33.380358  -20.842956  8.05506  -0.729719  5.807007  32.687869  11.964343  6.595133  4.965871  5.277757  1.430375  -10.119624  18.019921  7.935521  25.306994  8.290572  2.513763  -2.81079  -5.054294  -0.879219  4.640478  -13.927397  -1.416538  12.805829  -13.927397  -1.416538  12.805829  -13.641542  15.2618  -6.48703  80.416984  60.343012  118.430382  -20.795964  -32.735684  121.385107  121.422078  4.752321  -6.464095  5.532389  2.039543  8.439676  77.528666  17.020178  29.329863  -47.791957  17.923554  -95.679674  69.674201  32.576809  8.080009  26.377056  5.602084  -5.450922  19.818791  3.975429  -4.337234  
0.0  101.685394  0.0  0.873067  -43.576258  -105.069156  32.94745  -20.765275  8.052  -1.314579  6.126656  32.40839  11.842733  6.552009  4.906008  4.215196  1.722087  -9.829641  18.261084  8.130305  25.242873  8.146202  2.562588  -2.805665  -5.036185  -0.924106  4.580957  -13.886336  -1.554118  12.653427  -13.886335  -1.554118  12.653427  -13.060435  15.798221  -6.043406  83.244788  62.407802  121.76616  -20.421851  -33.348991  120.426413  121.555207  4.750008  -6.835641  6.497517  2.16998  8.887913  77.813751  18.356714  28.92572  -48.4333  18.813985  -95.39808  70.165792  31.941577  8.63862  25.91332  5.579451  -5.106721  19.467792  3.976847  -4.073173  
0.0  101.685394  0.0  0.90373  -41.921287  -105.059469  32.410042  -20.807134  8.117955  -1.720551  6.434354  32.202042  11.458956  6.489336  4.768331  3.039674  2.099583  -9.528613  18.426858  8.320236  25.255305  7.9363  2.606623  -2.846801  -5.04991  -0.973231  4.489079  -13.932076  -1.703908  12.414357  -13.932076  -1.703908  12.414357  -12.163732  16.711182  -5.358565  86.576348  64.784348  125.773778  -19.953528  -33.999198  119.401047  121.683959  4.729572  -7.54488  7.514879  2.322863  9.482229  78.087047  19.663419  28.516511  -49.165749  19.810873  -95.10457  70.608715  31.296797  9.336399  25.487911  5.558507  -4.661225  19.144585  3.982965  -3.733566  
0.0  101.685394  0.0  0.926998  -40.114141  -105.03973  31.841848  -20.866658  8.169152  -2.238356  6.759285  31.883998  11.036733  6.400393  4.649254  2.168364  2.580305  -9.183248  18.050381  8.55217  25.225139  7.881221  2.621803  -2.869053  -5.02736  -1.018642  4.394869  -13.877926  -1.850984  12.167594  -13.877926  -1.850984  12.167594  -11.624628  17.588354  -4.632414  91.412371  67.43686  131.148592  -19.434781  -34.682657  118.358893  121.8626  4.797586  -8.551686  8.332647  2.374241  10.068613  78.246819  21.040273  28.015155  -50.061892  21.047853  -94.801224  71.195067  30.538776  10.294066  24.908702  5.525356  -4.304438  18.707001  3.976647  -3.458668  
0.0  101.685394  0.0  0.914442  -38.132593  -104.983247  31.231416  -20.960067  8.250368  -2.540756  7.114999  31.697843  10.458054  6.229253  4.406518  1.358566  3.149822  -8.911417  17.192718  8.801687  25.210772  7.992377  2.672756  -2.884587  -5.018233  -1.072401  4.297921  -13.861471  -2.018687  11.915367  -13.861471  -2.018687  11.915368  -10.822466  18.626077  -3.964895  98.321909  69.992564  138.802244  -18.851751  -35.385017  117.366742  121.928306  4.974161  -9.728394  9.188042  2.440525  10.658625  78.352566  22.491582  27.421226  -51.179691  22.539191  -94.501663  71.975134  29.661243  11.386614  24.330978  5.532748  -3.993035  18.271067  3.998315  -3.219574  
0.0  101.685394  0.0  0.918656  -35.945829  -104.853822  30.49032  -20.985997  8.296295  -3.288833  7.526829  31.179756  10.177215  6.113894  4.311687  0.612729  3.86256  -8.722488  16.457256  8.836216  25.282776  7.778914  2.716828  -2.903402  -5.018493  -1.126729  4.179808  -13.869775  -2.190695  11.605881  -13.869775  -2.190696  11.605882  -10.055784  19.652301  -3.40171  108.745376  72.117315  149.903344  -18.16778  -36.050392  116.402684  121.876148  5.278883  -11.123822  10.081708  2.494974  11.274586  78.414596  23.983361  26.681068  -52.473719  24.098132  -94.182722  72.75005  28.835572  12.235797  23.733594  5.548197  -3.715403  17.820742  4.024249  -3.005992  
0.0  101.685394  0.0  0.998817  -33.690089  -104.834224  29.771726  -20.9991  8.47968  -3.875499  7.968884  30.7605  9.733389  5.910227  4.082482  -0.203038  4.734244  -8.542753  15.513761  8.76363  25.382807  7.711646  2.824935  -2.904455  -5.018629  -1.168403  4.058861  -13.874839  -2.329081  11.285949  -13.874839  -2.329081  11.285949  -9.14801  20.681827  -2.957561  122.617898  73.188091  164.447563  -17.425579  -36.758935  115.427812  121.688399  5.787245  -12.856013  11.097096  2.559878  11.972473  78.359208  25.552408  25.758551  -53.696733  25.431369  -93.910572  73.524419  28.165741  12.820341  23.152917  5.561607  -3.439301  17.382955  4.04797  -2.79366  
0.0  101.685394  0.0  1.058528  -31.282211  -104.694383  28.97011  -20.966628  8.558919  -4.812394  8.418958  30.081184  9.529768  5.763115  3.984549  -0.945025  5.622305  -8.36551  14.65683  8.658678  25.491414  7.387252  2.902374  -2.923315  -5.006272  -1.206683  3.922461  -13.844373  -2.463649  10.922896  -13.844373  -2.463649  10.922896  -8.251197  21.718833  -2.424189  137.758935  72.916479  -179.77839  -16.784282  -37.592305  114.486417  121.346736  6.507836  -14.964264  12.123289  2.53216  12.608316  78.141858  27.17776  24.703348  -54.545694  26.411154  -93.782831  74.25657  27.608673  13.513263  22.4669  5.514506  -3.236839  16.866892  4.023491  -2.633409  
0.0  101.685394  0.0  1.170833  -29.077921  -104.697403  28.511079  -21.026992  8.7947  -5.672385  8.850285  29.419396  9.085995  5.517225  3.739199  -1.668687  6.48372  -8.118419  13.90057  8.53103  25.644969  7.071188  3.007907  -2.955689  -4.937112  -1.231486  3.800542  -13.656663  -2.567743  10.594561  -13.656663  -2.567743  10.594561  -7.168158  22.853845  -1.667264  150.993842  71.288078  -165.831384  -16.330007  -38.450185  113.698692  120.782561  7.368657  -17.335793  13.098338  2.530501  13.206933  77.91445  28.856411  23.549638  -54.999376  27.067364  -93.777826  74.910671  27.092396  14.398528  21.721195  5.428515  -3.015373  16.305927  3.970299  -2.457106  
0.0  101.685394  0.0  1.218288  -26.458922  -104.557245  27.684702  -21.053789  8.90352  -6.665628  9.262403  28.646681  8.797028  5.362772  3.628149  -2.664002  7.309494  -7.839119  13.020499  8.52806  25.667335  6.833083  3.114215  -2.932123  -4.862966  -1.246738  3.65216  -13.452551  -2.651469  10.191779  -13.452551  -2.651469  10.191778  -6.021481  23.647937  -0.656096  160.799763  68.329058  -155.217783  -16.075715  -39.233031  113.210071  119.999874  8.342612  -19.749619  13.774098  2.345749  13.804236  77.769769  30.669718  22.378255  -55.292728  27.527692  -93.779767  75.520795  26.636434  15.44229  20.695942  5.206517  -2.87206  15.536122  3.812933  -2.332593  
